<svg width="56" height="79" viewBox="0 0 56 79" fill="none" xmlns="http://www.w3.org/2000/svg">
<g clip-path="url(#clip0)">
<path d="M27.9892 79C27.869 78.9995 27.7505 78.9717 27.6431 78.9187C27.5356 78.8656 27.4419 78.7888 27.3694 78.6942C26.2509 77.2264 0 42.5594 0 27.637C0.0775837 20.3588 3.06174 13.4047 8.30433 8.28505C13.5469 3.16543 20.6245 0.293762 28 0.293762C35.3755 0.293762 42.4531 3.16543 47.6957 8.28505C52.9383 13.4047 55.9224 20.3588 56 27.637C56 42.5594 29.7367 77.2264 28.6306 78.7034C28.5551 78.7994 28.4576 78.8764 28.3461 78.9279C28.2345 78.9795 28.1122 79.0042 27.9892 79Z" fill="black"/>
<path d="M27.9705 1.52893C20.9575 1.53783 14.2343 4.29155 9.27592 9.18601C4.31752 14.0805 1.52874 20.716 1.52136 27.637C1.52136 40.8164 23.9269 71.5174 27.9705 76.9512C31.9987 71.5174 54.4228 40.8164 54.4228 27.637C54.4154 20.7155 51.6262 14.0795 46.6672 9.18493C41.7081 4.29038 34.9841 1.53703 27.9705 1.52893Z" fill="#6200EE"/>
<path d="M36.0206 21.4265L35.6487 20.3929C35.5783 20.1617 35.4505 19.9515 35.2769 19.7814L35.1716 18.4206L37.0307 18.283C37.1844 18.272 37.3273 18.2013 37.4281 18.0863C37.529 17.9713 37.5794 17.8216 37.5683 17.6699C37.5572 17.5182 37.4855 17.3771 37.369 17.2776C37.2525 17.1782 37.1007 17.1284 36.947 17.1394L34.6107 17.3137H34.5333H34.4279L32.8043 17.4329C32.6568 17.4475 32.5206 17.517 32.4232 17.6273C32.3259 17.7375 32.2748 17.8802 32.2803 18.0264C32.2858 18.1725 32.3476 18.3111 32.453 18.4138C32.5584 18.5166 32.6995 18.5759 32.8476 18.5796H32.8941L34.0282 18.494L34.0871 19.3594H23.0996C23.1034 19.3224 23.0958 19.2851 23.0779 19.2523L22.4582 17.2617C22.3828 17.0176 22.4026 16.7545 22.5139 16.5242C22.6251 16.2939 22.8197 16.113 23.0593 16.0171L24.2275 15.5615C24.3031 15.5372 24.3728 15.4978 24.4324 15.4459C24.492 15.394 24.5402 15.3306 24.5741 15.2596C24.6079 15.1885 24.6266 15.1115 24.6291 15.033C24.6316 14.9546 24.6178 14.8765 24.5886 14.8036C24.5594 14.7306 24.5153 14.6643 24.4591 14.6088C24.403 14.5532 24.3359 14.5097 24.262 14.4807C24.1881 14.4517 24.109 14.438 24.0295 14.4403C23.95 14.4427 23.8719 14.461 23.7999 14.4943L22.6193 14.9591C22.1068 15.1609 21.6899 15.5456 21.4517 16.0368C21.2134 16.528 21.1712 17.0897 21.3335 17.6103L21.9532 19.604C22.0245 19.8133 22.0245 20.0399 21.9532 20.2492L21.4419 21.6558C19.9236 21.2319 18.2983 21.4013 16.9032 22.1288C15.5082 22.8562 14.4505 24.0859 13.9499 25.5626C13.4492 27.0392 13.544 28.6495 14.2145 30.059C14.8851 31.4685 16.0799 32.5691 17.5509 33.1322C19.0219 33.6954 20.6562 33.6779 22.1145 33.0834C23.5728 32.4889 24.7432 31.363 25.3825 29.9394C26.0219 28.5159 26.0813 26.904 25.5483 25.4384C25.0153 23.9728 23.9309 22.7661 22.5202 22.0686L22.6193 21.8026L30.5857 25.839C30.2356 27.0596 30.2831 28.358 30.7214 29.5506C31.1597 30.7431 31.9667 31.7696 33.0283 32.4849C34.09 33.2002 35.3525 33.5682 36.6376 33.5368C37.9227 33.5054 39.1653 33.0763 40.1898 32.31C41.2143 31.5438 41.9688 30.4792 42.3468 29.2667C42.7248 28.0541 42.7072 26.7551 42.2963 25.553C41.8854 24.3509 41.1022 23.3067 40.0572 22.5679C39.0122 21.829 37.7584 21.433 36.4729 21.4357C36.3232 21.4136 36.1711 21.4106 36.0206 21.4265ZM24.714 27.4566C24.7178 28.4865 24.394 29.4917 23.7882 30.3304C23.1824 31.1691 22.3252 31.799 21.3374 32.1314C20.3496 32.4638 19.281 32.4818 18.2822 32.1831C17.2834 31.8843 16.4049 31.2837 15.7703 30.466C15.1357 29.6483 14.7772 28.6547 14.7452 27.6253C14.7132 26.5958 15.0094 25.5824 15.592 24.7279C16.1746 23.8734 17.0143 23.2208 17.9926 22.8622C18.971 22.5036 20.0387 22.4571 21.0453 22.7291L19.3907 27.2609C19.3645 27.3316 19.3527 27.4066 19.356 27.4818C19.3593 27.557 19.3776 27.6307 19.4098 27.6989C19.4421 27.7671 19.4876 27.8283 19.5439 27.8791C19.6002 27.9299 19.666 27.9692 19.7377 27.9948L19.936 28.0284C20.054 28.0297 20.1696 27.9952 20.2672 27.9296C20.3647 27.864 20.4395 27.7704 20.4814 27.6615L22.1236 23.1542C22.9063 23.5766 23.5597 24.1987 24.0153 24.9556C24.471 25.7124 24.7123 26.5762 24.714 27.4566ZM35.2645 22.7047L36.9315 27.1416C36.9512 27.1996 36.9529 27.262 36.9363 27.3208C36.9198 27.3797 36.8857 27.4323 36.8386 27.4719C36.7979 27.5096 36.7476 27.5358 36.693 27.5476C36.6385 27.5595 36.5817 27.5565 36.5287 27.5392L32.0389 25.2702C32.359 24.6398 32.8127 24.0848 33.3692 23.6426C33.9257 23.2005 34.5721 22.8817 35.2645 22.7077V22.7047ZM23.016 20.7171L23.0439 20.6314C23.0502 20.5885 23.0616 20.5464 23.0779 20.5061H34.2327C34.3051 20.5099 34.3743 20.5367 34.4301 20.5824C34.4859 20.6281 34.5254 20.6903 34.5426 20.7599L34.8524 21.6252C34.0279 21.8531 33.2607 22.2486 32.6001 22.7863C31.9395 23.3239 31.4001 23.9919 31.0164 24.7473L23.016 20.7171ZM41.4461 27.4444C41.4316 28.1247 41.2735 28.7946 40.9818 29.4112C40.6901 30.0278 40.2713 30.5776 39.7522 31.0254C39.233 31.4733 38.6248 31.8093 37.9666 32.012C37.3084 32.2148 36.6145 32.2798 35.9294 32.2029C35.2443 32.126 34.5829 31.9089 33.9876 31.5655C33.3923 31.2221 32.8762 30.7599 32.4721 30.2085C32.0681 29.6571 31.785 29.0285 31.6411 28.363C31.4971 27.6975 31.4954 27.0097 31.6361 26.3435L36.0268 28.5452C36.222 28.6297 36.4332 28.6725 36.6465 28.6706C37.035 28.665 37.4059 28.5096 37.6798 28.2375C37.9537 27.9655 38.1089 27.5985 38.1121 27.215C38.1124 27.0632 38.0872 26.9123 38.0377 26.7686L36.4544 22.5487H36.4822C37.7999 22.5536 39.0618 23.074 39.9912 23.9957C40.9206 24.9175 41.4416 26.1654 41.4399 27.4658L41.4461 27.4444Z" fill="white"/>
</g>
<defs>
<clipPath id="clip0">
<rect width="56" height="79" fill="white"/>
</clipPath>
</defs>
</svg>
